<mxfile host="app.diagrams.net" agent="Mozilla/5.0 (Windows NT 10.0; Win64; x64; rv:135.0) Gecko/20100101 Firefox/135.0" version="26.0.16">
  <diagram name="1 oldal" id="ZEDm-vvKbvSJ-1KInhfD">
    <mxGraphModel dx="2018" dy="797" grid="1" gridSize="10" guides="1" tooltips="1" connect="1" arrows="1" fold="1" page="1" pageScale="1" pageWidth="827" pageHeight="1169" math="0" shadow="0">
      <root>
        <mxCell id="0" />
        <mxCell id="1" parent="0" />
        <mxCell id="y44Dcp8CXkRWDjDvIWoM-27" value="" style="ellipse;whiteSpace=wrap;html=1;" vertex="1" parent="1">
          <mxGeometry x="50" y="440" width="140" height="60" as="geometry" />
        </mxCell>
        <mxCell id="y44Dcp8CXkRWDjDvIWoM-1" style="rounded=0;orthogonalLoop=1;jettySize=auto;html=1;exitX=0.5;exitY=1;exitDx=0;exitDy=0;entryX=0.5;entryY=0;entryDx=0;entryDy=0;startArrow=none;startFill=0;endArrow=none;" edge="1" parent="1" source="lsv2QbgZ2vg8ruysgdPq-1" target="lsv2QbgZ2vg8ruysgdPq-11">
          <mxGeometry relative="1" as="geometry" />
        </mxCell>
        <mxCell id="y44Dcp8CXkRWDjDvIWoM-2" style="rounded=0;orthogonalLoop=1;jettySize=auto;html=1;exitX=0.5;exitY=1;exitDx=0;exitDy=0;entryX=0.5;entryY=0;entryDx=0;entryDy=0;startArrow=none;startFill=0;endArrow=none;" edge="1" parent="1" source="lsv2QbgZ2vg8ruysgdPq-1" target="lsv2QbgZ2vg8ruysgdPq-12">
          <mxGeometry relative="1" as="geometry" />
        </mxCell>
        <mxCell id="y44Dcp8CXkRWDjDvIWoM-3" style="rounded=0;orthogonalLoop=1;jettySize=auto;html=1;exitX=0.5;exitY=1;exitDx=0;exitDy=0;entryX=0.5;entryY=0;entryDx=0;entryDy=0;startArrow=none;startFill=0;endArrow=none;" edge="1" parent="1" source="lsv2QbgZ2vg8ruysgdPq-1" target="lsv2QbgZ2vg8ruysgdPq-13">
          <mxGeometry relative="1" as="geometry" />
        </mxCell>
        <mxCell id="y44Dcp8CXkRWDjDvIWoM-9" style="rounded=0;orthogonalLoop=1;jettySize=auto;html=1;exitX=0;exitY=0;exitDx=0;exitDy=0;entryX=1;entryY=0.5;entryDx=0;entryDy=0;endArrow=none;startFill=0;" edge="1" parent="1" source="lsv2QbgZ2vg8ruysgdPq-1" target="y44Dcp8CXkRWDjDvIWoM-8">
          <mxGeometry relative="1" as="geometry" />
        </mxCell>
        <mxCell id="y44Dcp8CXkRWDjDvIWoM-42" style="rounded=0;orthogonalLoop=1;jettySize=auto;html=1;exitX=0;exitY=0.5;exitDx=0;exitDy=0;entryX=1;entryY=0.5;entryDx=0;entryDy=0;endArrow=none;startFill=1;startArrow=block;" edge="1" parent="1" source="lsv2QbgZ2vg8ruysgdPq-1" target="y44Dcp8CXkRWDjDvIWoM-41">
          <mxGeometry relative="1" as="geometry" />
        </mxCell>
        <mxCell id="lsv2QbgZ2vg8ruysgdPq-1" value="Termék" style="rounded=0;whiteSpace=wrap;html=1;" parent="1" vertex="1">
          <mxGeometry x="199" y="510" width="120" height="40" as="geometry" />
        </mxCell>
        <mxCell id="lsv2QbgZ2vg8ruysgdPq-5" value="T-GY" style="rhombus;whiteSpace=wrap;html=1;" parent="1" vertex="1">
          <mxGeometry x="389" y="500" width="60" height="60" as="geometry" />
        </mxCell>
        <mxCell id="y44Dcp8CXkRWDjDvIWoM-10" style="edgeStyle=orthogonalEdgeStyle;rounded=0;orthogonalLoop=1;jettySize=auto;html=1;exitX=1;exitY=0.5;exitDx=0;exitDy=0;entryX=0;entryY=0.5;entryDx=0;entryDy=0;endArrow=none;startFill=0;" edge="1" parent="1" source="lsv2QbgZ2vg8ruysgdPq-6" target="y44Dcp8CXkRWDjDvIWoM-6">
          <mxGeometry relative="1" as="geometry" />
        </mxCell>
        <mxCell id="lsv2QbgZ2vg8ruysgdPq-6" value="Gyártó" style="rounded=0;whiteSpace=wrap;html=1;" parent="1" vertex="1">
          <mxGeometry x="519" y="510" width="120" height="40" as="geometry" />
        </mxCell>
        <mxCell id="lsv2QbgZ2vg8ruysgdPq-7" value="" style="endArrow=classic;html=1;rounded=0;entryX=0;entryY=0.5;entryDx=0;entryDy=0;exitX=1;exitY=0.5;exitDx=0;exitDy=0;strokeWidth=2;" parent="1" source="lsv2QbgZ2vg8ruysgdPq-5" target="lsv2QbgZ2vg8ruysgdPq-6" edge="1">
          <mxGeometry width="50" height="50" relative="1" as="geometry">
            <mxPoint x="409" y="500" as="sourcePoint" />
            <mxPoint x="449" y="500" as="targetPoint" />
          </mxGeometry>
        </mxCell>
        <mxCell id="lsv2QbgZ2vg8ruysgdPq-10" value="" style="endArrow=classic;html=1;rounded=0;exitX=0;exitY=0.5;exitDx=0;exitDy=0;entryX=1;entryY=0.5;entryDx=0;entryDy=0;strokeWidth=2;" parent="1" source="lsv2QbgZ2vg8ruysgdPq-5" target="lsv2QbgZ2vg8ruysgdPq-1" edge="1">
          <mxGeometry width="50" height="50" relative="1" as="geometry">
            <mxPoint x="377" y="480" as="sourcePoint" />
            <mxPoint x="323" y="480" as="targetPoint" />
          </mxGeometry>
        </mxCell>
        <mxCell id="lsv2QbgZ2vg8ruysgdPq-11" value="kód" style="ellipse;whiteSpace=wrap;html=1;" parent="1" vertex="1">
          <mxGeometry x="99" y="620" width="100" height="40" as="geometry" />
        </mxCell>
        <mxCell id="lsv2QbgZ2vg8ruysgdPq-12" value="Név" style="ellipse;whiteSpace=wrap;html=1;" parent="1" vertex="1">
          <mxGeometry x="209" y="620" width="100" height="40" as="geometry" />
        </mxCell>
        <mxCell id="lsv2QbgZ2vg8ruysgdPq-13" value="Ear" style="ellipse;whiteSpace=wrap;html=1;" parent="1" vertex="1">
          <mxGeometry x="319" y="620" width="100" height="40" as="geometry" />
        </mxCell>
        <mxCell id="lsv2QbgZ2vg8ruysgdPq-14" value="Név" style="ellipse;whiteSpace=wrap;html=1;" parent="1" vertex="1">
          <mxGeometry x="649" y="620" width="100" height="40" as="geometry" />
        </mxCell>
        <mxCell id="y44Dcp8CXkRWDjDvIWoM-17" style="rounded=0;orthogonalLoop=1;jettySize=auto;html=1;exitX=0.5;exitY=1;exitDx=0;exitDy=0;entryX=0.5;entryY=0;entryDx=0;entryDy=0;endArrow=none;startFill=0;" edge="1" parent="1" source="lsv2QbgZ2vg8ruysgdPq-15" target="y44Dcp8CXkRWDjDvIWoM-14">
          <mxGeometry relative="1" as="geometry" />
        </mxCell>
        <mxCell id="y44Dcp8CXkRWDjDvIWoM-18" style="rounded=0;orthogonalLoop=1;jettySize=auto;html=1;exitX=0.5;exitY=1;exitDx=0;exitDy=0;entryX=0.5;entryY=0;entryDx=0;entryDy=0;endArrow=none;startFill=0;" edge="1" parent="1" source="lsv2QbgZ2vg8ruysgdPq-15" target="y44Dcp8CXkRWDjDvIWoM-15">
          <mxGeometry relative="1" as="geometry" />
        </mxCell>
        <mxCell id="y44Dcp8CXkRWDjDvIWoM-19" style="rounded=0;orthogonalLoop=1;jettySize=auto;html=1;exitX=0.5;exitY=1;exitDx=0;exitDy=0;entryX=0.5;entryY=0;entryDx=0;entryDy=0;endArrow=none;startFill=0;" edge="1" parent="1" source="lsv2QbgZ2vg8ruysgdPq-15" target="y44Dcp8CXkRWDjDvIWoM-16">
          <mxGeometry relative="1" as="geometry" />
        </mxCell>
        <mxCell id="lsv2QbgZ2vg8ruysgdPq-15" value="Telephely" style="ellipse;whiteSpace=wrap;html=1;" parent="1" vertex="1">
          <mxGeometry x="539" y="620" width="100" height="40" as="geometry" />
        </mxCell>
        <mxCell id="lsv2QbgZ2vg8ruysgdPq-16" value="Adószám" style="ellipse;whiteSpace=wrap;html=1;" parent="1" vertex="1">
          <mxGeometry x="429" y="620" width="100" height="40" as="geometry" />
        </mxCell>
        <mxCell id="lsv2QbgZ2vg8ruysgdPq-25" value="" style="endArrow=none;html=1;rounded=0;entryX=0.5;entryY=1;entryDx=0;entryDy=0;exitX=0.5;exitY=0;exitDx=0;exitDy=0;startFill=0;startArrow=none;" parent="1" source="lsv2QbgZ2vg8ruysgdPq-16" target="lsv2QbgZ2vg8ruysgdPq-6" edge="1">
          <mxGeometry width="50" height="50" relative="1" as="geometry">
            <mxPoint x="429" y="620" as="sourcePoint" />
            <mxPoint x="479" y="570" as="targetPoint" />
          </mxGeometry>
        </mxCell>
        <mxCell id="lsv2QbgZ2vg8ruysgdPq-26" value="" style="endArrow=none;html=1;rounded=0;exitX=0.5;exitY=0;exitDx=0;exitDy=0;entryX=0.5;entryY=1;entryDx=0;entryDy=0;startFill=0;startArrow=none;" parent="1" source="lsv2QbgZ2vg8ruysgdPq-15" target="lsv2QbgZ2vg8ruysgdPq-6" edge="1">
          <mxGeometry width="50" height="50" relative="1" as="geometry">
            <mxPoint x="503" y="630" as="sourcePoint" />
            <mxPoint x="539" y="560" as="targetPoint" />
          </mxGeometry>
        </mxCell>
        <mxCell id="lsv2QbgZ2vg8ruysgdPq-27" value="" style="endArrow=none;html=1;rounded=0;exitX=0.5;exitY=0;exitDx=0;exitDy=0;entryX=0.5;entryY=1;entryDx=0;entryDy=0;startFill=0;startArrow=none;" parent="1" source="lsv2QbgZ2vg8ruysgdPq-14" target="lsv2QbgZ2vg8ruysgdPq-6" edge="1">
          <mxGeometry width="50" height="50" relative="1" as="geometry">
            <mxPoint x="654" y="630" as="sourcePoint" />
            <mxPoint x="509" y="550" as="targetPoint" />
          </mxGeometry>
        </mxCell>
        <mxCell id="y44Dcp8CXkRWDjDvIWoM-6" value="Telephely" style="ellipse;whiteSpace=wrap;html=1;" vertex="1" parent="1">
          <mxGeometry x="679" y="510" width="120" height="40" as="geometry" />
        </mxCell>
        <mxCell id="y44Dcp8CXkRWDjDvIWoM-8" value="&lt;div&gt;Egység_db&lt;/div&gt;" style="ellipse;whiteSpace=wrap;html=1;" vertex="1" parent="1">
          <mxGeometry x="60" y="450" width="120" height="40" as="geometry" />
        </mxCell>
        <mxCell id="y44Dcp8CXkRWDjDvIWoM-13" value="" style="endArrow=classic;html=1;rounded=0;exitX=0;exitY=0.5;exitDx=0;exitDy=0;strokeWidth=2;" edge="1" parent="1">
          <mxGeometry width="50" height="50" relative="1" as="geometry">
            <mxPoint x="389" y="529.5" as="sourcePoint" />
            <mxPoint x="329" y="529.5" as="targetPoint" />
          </mxGeometry>
        </mxCell>
        <mxCell id="y44Dcp8CXkRWDjDvIWoM-14" value="Ir.szám" style="ellipse;whiteSpace=wrap;html=1;shadow=0;" vertex="1" parent="1">
          <mxGeometry x="459" y="700" width="80" height="40" as="geometry" />
        </mxCell>
        <mxCell id="y44Dcp8CXkRWDjDvIWoM-15" value="Város" style="ellipse;whiteSpace=wrap;html=1;shadow=0;" vertex="1" parent="1">
          <mxGeometry x="549" y="700" width="80" height="40" as="geometry" />
        </mxCell>
        <mxCell id="y44Dcp8CXkRWDjDvIWoM-16" value="házszám" style="ellipse;whiteSpace=wrap;html=1;shadow=0;" vertex="1" parent="1">
          <mxGeometry x="639" y="700" width="80" height="40" as="geometry" />
        </mxCell>
        <mxCell id="y44Dcp8CXkRWDjDvIWoM-24" style="rounded=0;orthogonalLoop=1;jettySize=auto;html=1;entryX=0.5;entryY=0;entryDx=0;entryDy=0;endArrow=classic;startFill=0;endFill=1;strokeWidth=2;" edge="1" parent="1" source="y44Dcp8CXkRWDjDvIWoM-23" target="lsv2QbgZ2vg8ruysgdPq-1">
          <mxGeometry relative="1" as="geometry" />
        </mxCell>
        <mxCell id="y44Dcp8CXkRWDjDvIWoM-39" style="edgeStyle=orthogonalEdgeStyle;rounded=0;orthogonalLoop=1;jettySize=auto;html=1;exitX=0.5;exitY=0;exitDx=0;exitDy=0;entryX=0.5;entryY=1;entryDx=0;entryDy=0;strokeWidth=2;" edge="1" parent="1" source="y44Dcp8CXkRWDjDvIWoM-23" target="y44Dcp8CXkRWDjDvIWoM-28">
          <mxGeometry relative="1" as="geometry" />
        </mxCell>
        <mxCell id="y44Dcp8CXkRWDjDvIWoM-40" style="edgeStyle=orthogonalEdgeStyle;rounded=0;orthogonalLoop=1;jettySize=auto;html=1;exitX=0.5;exitY=0;exitDx=0;exitDy=0;strokeWidth=2;" edge="1" parent="1" source="y44Dcp8CXkRWDjDvIWoM-23">
          <mxGeometry relative="1" as="geometry">
            <mxPoint x="259" y="330" as="targetPoint" />
          </mxGeometry>
        </mxCell>
        <mxCell id="y44Dcp8CXkRWDjDvIWoM-23" value="T_A" style="rhombus;whiteSpace=wrap;html=1;" vertex="1" parent="1">
          <mxGeometry x="219" y="370" width="80" height="80" as="geometry" />
        </mxCell>
        <mxCell id="y44Dcp8CXkRWDjDvIWoM-26" style="rounded=0;orthogonalLoop=1;jettySize=auto;html=1;endArrow=classic;startFill=0;endFill=1;strokeWidth=2;" edge="1" parent="1">
          <mxGeometry relative="1" as="geometry">
            <mxPoint x="258.5" y="460" as="sourcePoint" />
            <mxPoint x="258.5" y="500" as="targetPoint" />
          </mxGeometry>
        </mxCell>
        <mxCell id="y44Dcp8CXkRWDjDvIWoM-34" style="rounded=0;orthogonalLoop=1;jettySize=auto;html=1;exitX=0;exitY=0.5;exitDx=0;exitDy=0;entryX=1;entryY=0.5;entryDx=0;entryDy=0;endArrow=none;startFill=0;" edge="1" parent="1" source="y44Dcp8CXkRWDjDvIWoM-28" target="y44Dcp8CXkRWDjDvIWoM-31">
          <mxGeometry relative="1" as="geometry" />
        </mxCell>
        <mxCell id="y44Dcp8CXkRWDjDvIWoM-28" value="Alkatrész" style="rounded=0;whiteSpace=wrap;html=1;" vertex="1" parent="1">
          <mxGeometry x="199" y="260" width="120" height="60" as="geometry" />
        </mxCell>
        <mxCell id="y44Dcp8CXkRWDjDvIWoM-33" style="rounded=0;orthogonalLoop=1;jettySize=auto;html=1;entryX=1;entryY=0.5;entryDx=0;entryDy=0;endArrow=none;startFill=0;exitX=0;exitY=0.5;exitDx=0;exitDy=0;" edge="1" parent="1" source="y44Dcp8CXkRWDjDvIWoM-29" target="y44Dcp8CXkRWDjDvIWoM-28">
          <mxGeometry relative="1" as="geometry">
            <mxPoint x="370" y="210" as="sourcePoint" />
          </mxGeometry>
        </mxCell>
        <mxCell id="y44Dcp8CXkRWDjDvIWoM-29" value="Név" style="ellipse;whiteSpace=wrap;html=1;" vertex="1" parent="1">
          <mxGeometry x="359" y="270" width="100" height="40" as="geometry" />
        </mxCell>
        <mxCell id="y44Dcp8CXkRWDjDvIWoM-31" value="Akód" style="ellipse;whiteSpace=wrap;html=1;" vertex="1" parent="1">
          <mxGeometry x="59" y="270" width="100" height="40" as="geometry" />
        </mxCell>
        <mxCell id="y44Dcp8CXkRWDjDvIWoM-45" style="edgeStyle=orthogonalEdgeStyle;rounded=0;orthogonalLoop=1;jettySize=auto;html=1;exitX=0;exitY=0.5;exitDx=0;exitDy=0;entryX=1;entryY=0.5;entryDx=0;entryDy=0;" edge="1" parent="1" source="y44Dcp8CXkRWDjDvIWoM-41" target="y44Dcp8CXkRWDjDvIWoM-44">
          <mxGeometry relative="1" as="geometry" />
        </mxCell>
        <mxCell id="y44Dcp8CXkRWDjDvIWoM-46" style="edgeStyle=orthogonalEdgeStyle;rounded=0;orthogonalLoop=1;jettySize=auto;html=1;exitX=0;exitY=0.5;exitDx=0;exitDy=0;" edge="1" parent="1" source="y44Dcp8CXkRWDjDvIWoM-41">
          <mxGeometry relative="1" as="geometry">
            <mxPoint x="40" y="530" as="targetPoint" />
          </mxGeometry>
        </mxCell>
        <mxCell id="y44Dcp8CXkRWDjDvIWoM-41" value="Ib.T" style="rhombus;whiteSpace=wrap;html=1;" vertex="1" parent="1">
          <mxGeometry x="90" y="500" width="60" height="60" as="geometry" />
        </mxCell>
        <mxCell id="y44Dcp8CXkRWDjDvIWoM-43" style="rounded=0;orthogonalLoop=1;jettySize=auto;html=1;entryX=1;entryY=0.5;entryDx=0;entryDy=0;endArrow=none;startFill=1;startArrow=block;" edge="1" parent="1">
          <mxGeometry relative="1" as="geometry">
            <mxPoint x="190" y="529.41" as="sourcePoint" />
            <mxPoint x="151" y="529.41" as="targetPoint" />
          </mxGeometry>
        </mxCell>
        <mxCell id="y44Dcp8CXkRWDjDvIWoM-50" style="rounded=0;orthogonalLoop=1;jettySize=auto;html=1;exitX=0.5;exitY=1;exitDx=0;exitDy=0;entryX=0.5;entryY=0;entryDx=0;entryDy=0;endArrow=none;startFill=0;" edge="1" parent="1" source="y44Dcp8CXkRWDjDvIWoM-44" target="y44Dcp8CXkRWDjDvIWoM-47">
          <mxGeometry relative="1" as="geometry" />
        </mxCell>
        <mxCell id="y44Dcp8CXkRWDjDvIWoM-51" style="rounded=0;orthogonalLoop=1;jettySize=auto;html=1;exitX=0.5;exitY=1;exitDx=0;exitDy=0;entryX=0.5;entryY=0;entryDx=0;entryDy=0;endArrow=none;startFill=0;" edge="1" parent="1" source="y44Dcp8CXkRWDjDvIWoM-44" target="y44Dcp8CXkRWDjDvIWoM-48">
          <mxGeometry relative="1" as="geometry" />
        </mxCell>
        <mxCell id="y44Dcp8CXkRWDjDvIWoM-52" style="rounded=0;orthogonalLoop=1;jettySize=auto;html=1;exitX=0.5;exitY=1;exitDx=0;exitDy=0;entryX=0.5;entryY=0;entryDx=0;entryDy=0;endArrow=none;startFill=0;" edge="1" parent="1" source="y44Dcp8CXkRWDjDvIWoM-44" target="y44Dcp8CXkRWDjDvIWoM-49">
          <mxGeometry relative="1" as="geometry" />
        </mxCell>
        <mxCell id="y44Dcp8CXkRWDjDvIWoM-54" style="rounded=0;orthogonalLoop=1;jettySize=auto;html=1;exitX=0;exitY=0.5;exitDx=0;exitDy=0;entryX=1;entryY=0.5;entryDx=0;entryDy=0;endArrow=none;startFill=0;" edge="1" parent="1" source="y44Dcp8CXkRWDjDvIWoM-44" target="y44Dcp8CXkRWDjDvIWoM-53">
          <mxGeometry relative="1" as="geometry" />
        </mxCell>
        <mxCell id="y44Dcp8CXkRWDjDvIWoM-44" value="Rendelés" style="rounded=0;whiteSpace=wrap;html=1;" vertex="1" parent="1">
          <mxGeometry x="-90" y="500" width="120" height="60" as="geometry" />
        </mxCell>
        <mxCell id="y44Dcp8CXkRWDjDvIWoM-47" value="Dátum" style="ellipse;whiteSpace=wrap;html=1;" vertex="1" parent="1">
          <mxGeometry x="-240" y="620" width="100" height="40" as="geometry" />
        </mxCell>
        <mxCell id="y44Dcp8CXkRWDjDvIWoM-48" value="ár" style="ellipse;whiteSpace=wrap;html=1;dashed=1;dashPattern=8 8;" vertex="1" parent="1">
          <mxGeometry x="-130" y="620" width="100" height="40" as="geometry" />
        </mxCell>
        <mxCell id="y44Dcp8CXkRWDjDvIWoM-49" value="darabszám" style="ellipse;whiteSpace=wrap;html=1;" vertex="1" parent="1">
          <mxGeometry x="-20" y="620" width="100" height="40" as="geometry" />
        </mxCell>
        <mxCell id="y44Dcp8CXkRWDjDvIWoM-53" value="Rkód" style="ellipse;whiteSpace=wrap;html=1;fontStyle=4" vertex="1" parent="1">
          <mxGeometry x="-230" y="510" width="100" height="40" as="geometry" />
        </mxCell>
        <mxCell id="y44Dcp8CXkRWDjDvIWoM-56" style="rounded=0;orthogonalLoop=1;jettySize=auto;html=1;exitX=0.5;exitY=1;exitDx=0;exitDy=0;entryX=0.5;entryY=0;entryDx=0;entryDy=0;strokeWidth=2;" edge="1" parent="1" source="y44Dcp8CXkRWDjDvIWoM-55" target="y44Dcp8CXkRWDjDvIWoM-44">
          <mxGeometry relative="1" as="geometry" />
        </mxCell>
        <mxCell id="y44Dcp8CXkRWDjDvIWoM-57" style="rounded=0;orthogonalLoop=1;jettySize=auto;html=1;exitX=0.5;exitY=1;exitDx=0;exitDy=0;strokeWidth=2;" edge="1" parent="1" source="y44Dcp8CXkRWDjDvIWoM-55">
          <mxGeometry relative="1" as="geometry">
            <mxPoint x="-29.57142857142867" y="489.9999999999999" as="targetPoint" />
          </mxGeometry>
        </mxCell>
        <mxCell id="y44Dcp8CXkRWDjDvIWoM-60" style="edgeStyle=orthogonalEdgeStyle;rounded=0;orthogonalLoop=1;jettySize=auto;html=1;exitX=0.5;exitY=0;exitDx=0;exitDy=0;entryX=0.5;entryY=1;entryDx=0;entryDy=0;strokeWidth=2;" edge="1" parent="1" source="y44Dcp8CXkRWDjDvIWoM-55" target="y44Dcp8CXkRWDjDvIWoM-59">
          <mxGeometry relative="1" as="geometry" />
        </mxCell>
        <mxCell id="y44Dcp8CXkRWDjDvIWoM-55" value="R_V" style="rhombus;whiteSpace=wrap;html=1;" vertex="1" parent="1">
          <mxGeometry x="-70" y="360" width="80" height="80" as="geometry" />
        </mxCell>
        <mxCell id="y44Dcp8CXkRWDjDvIWoM-70" style="rounded=0;orthogonalLoop=1;jettySize=auto;html=1;exitX=0.5;exitY=0;exitDx=0;exitDy=0;entryX=0.5;entryY=1;entryDx=0;entryDy=0;endArrow=none;startFill=0;" edge="1" parent="1" source="y44Dcp8CXkRWDjDvIWoM-59" target="y44Dcp8CXkRWDjDvIWoM-69">
          <mxGeometry relative="1" as="geometry" />
        </mxCell>
        <mxCell id="y44Dcp8CXkRWDjDvIWoM-72" style="rounded=0;orthogonalLoop=1;jettySize=auto;html=1;exitX=0.5;exitY=0;exitDx=0;exitDy=0;entryX=0.5;entryY=1;entryDx=0;entryDy=0;endArrow=none;startFill=0;" edge="1" parent="1" source="y44Dcp8CXkRWDjDvIWoM-59" target="y44Dcp8CXkRWDjDvIWoM-71">
          <mxGeometry relative="1" as="geometry" />
        </mxCell>
        <mxCell id="y44Dcp8CXkRWDjDvIWoM-59" value="Vevő" style="rounded=0;whiteSpace=wrap;html=1;" vertex="1" parent="1">
          <mxGeometry x="-90" y="250" width="120" height="60" as="geometry" />
        </mxCell>
        <mxCell id="y44Dcp8CXkRWDjDvIWoM-62" value="" style="edgeStyle=orthogonalEdgeStyle;rounded=0;orthogonalLoop=1;jettySize=auto;html=1;endArrow=none;startFill=1;startArrow=classic;" edge="1" parent="1" source="y44Dcp8CXkRWDjDvIWoM-61" target="y44Dcp8CXkRWDjDvIWoM-59">
          <mxGeometry relative="1" as="geometry" />
        </mxCell>
        <mxCell id="y44Dcp8CXkRWDjDvIWoM-61" value="Rkód" style="ellipse;whiteSpace=wrap;html=1;" vertex="1" parent="1">
          <mxGeometry x="-250" y="260" width="100" height="40" as="geometry" />
        </mxCell>
        <mxCell id="y44Dcp8CXkRWDjDvIWoM-66" value="Város" style="ellipse;whiteSpace=wrap;html=1;" vertex="1" parent="1">
          <mxGeometry x="-190" y="120" width="100" height="40" as="geometry" />
        </mxCell>
        <mxCell id="y44Dcp8CXkRWDjDvIWoM-67" value="Irszám" style="ellipse;whiteSpace=wrap;html=1;" vertex="1" parent="1">
          <mxGeometry x="-80" y="120" width="100" height="40" as="geometry" />
        </mxCell>
        <mxCell id="y44Dcp8CXkRWDjDvIWoM-68" value="utca" style="ellipse;whiteSpace=wrap;html=1;" vertex="1" parent="1">
          <mxGeometry x="30" y="120" width="100" height="40" as="geometry" />
        </mxCell>
        <mxCell id="y44Dcp8CXkRWDjDvIWoM-69" value="kód" style="ellipse;whiteSpace=wrap;html=1;" vertex="1" parent="1">
          <mxGeometry x="-320" y="120" width="100" height="40" as="geometry" />
        </mxCell>
        <mxCell id="y44Dcp8CXkRWDjDvIWoM-73" style="rounded=0;orthogonalLoop=1;jettySize=auto;html=1;exitX=0.5;exitY=0;exitDx=0;exitDy=0;entryX=0.5;entryY=1;entryDx=0;entryDy=0;endArrow=none;startFill=0;" edge="1" parent="1" source="y44Dcp8CXkRWDjDvIWoM-71" target="y44Dcp8CXkRWDjDvIWoM-66">
          <mxGeometry relative="1" as="geometry" />
        </mxCell>
        <mxCell id="y44Dcp8CXkRWDjDvIWoM-74" style="rounded=0;orthogonalLoop=1;jettySize=auto;html=1;exitX=0.5;exitY=0;exitDx=0;exitDy=0;entryX=0.5;entryY=1;entryDx=0;entryDy=0;endArrow=none;startFill=0;" edge="1" parent="1" source="y44Dcp8CXkRWDjDvIWoM-71" target="y44Dcp8CXkRWDjDvIWoM-67">
          <mxGeometry relative="1" as="geometry" />
        </mxCell>
        <mxCell id="y44Dcp8CXkRWDjDvIWoM-75" style="rounded=0;orthogonalLoop=1;jettySize=auto;html=1;exitX=0.5;exitY=0;exitDx=0;exitDy=0;entryX=0.5;entryY=1;entryDx=0;entryDy=0;endArrow=none;startFill=0;" edge="1" parent="1" source="y44Dcp8CXkRWDjDvIWoM-71" target="y44Dcp8CXkRWDjDvIWoM-68">
          <mxGeometry relative="1" as="geometry" />
        </mxCell>
        <mxCell id="y44Dcp8CXkRWDjDvIWoM-71" value="Postakód" style="ellipse;whiteSpace=wrap;html=1;" vertex="1" parent="1">
          <mxGeometry x="-80" y="190" width="100" height="40" as="geometry" />
        </mxCell>
        <mxCell id="y44Dcp8CXkRWDjDvIWoM-79" style="rounded=0;orthogonalLoop=1;jettySize=auto;html=1;exitX=0.5;exitY=0;exitDx=0;exitDy=0;entryX=0.5;entryY=1;entryDx=0;entryDy=0;endArrow=none;startFill=0;" edge="1" parent="1" source="y44Dcp8CXkRWDjDvIWoM-77" target="lsv2QbgZ2vg8ruysgdPq-6">
          <mxGeometry relative="1" as="geometry" />
        </mxCell>
        <mxCell id="y44Dcp8CXkRWDjDvIWoM-77" value="Postacím" style="ellipse;whiteSpace=wrap;html=1;" vertex="1" parent="1">
          <mxGeometry x="760" y="620" width="100" height="40" as="geometry" />
        </mxCell>
      </root>
    </mxGraphModel>
  </diagram>
</mxfile>
